<?xml version="1.0" encoding="utf-8" standalone="no"?>
<!DOCTYPE svg PUBLIC "-//W3C//DTD SVG 1.1//EN" "http://www.w3.org/Graphics/SVG/1.1/DTD/svg11.dtd">
<!-- Created with Skedio (http://skedio.shturmsoft.com/) -->
<svg version="1.1" xmlns="http://www.w3.org/2000/svg" xmlns:xlink="http://www.w3.org/1999/xlink" width="146pt" height="149pt" viewBox="0 0 146 149">
<g id="layer1">
	<text x="66.940" y="70.780" transform="matrix(1.0000 0.0000 0.0000 0.8577 0.0000 10.0691)" style="font-family:Roboto;font-size:14.00;fill:#0392CE;stroke:none;">B</text>
	<text x="66.948" y="74.872" transform="matrix(0.7299 0.2690 -0.3136 0.6261 41.5662 9.9867)" style="font-family:Roboto;font-size:14.00;fill:#0392CE;stroke:none;">e</text>
	<text x="66.471" y="85.944" transform="matrix(1.0000 0.0000 0.0000 0.8577 0.0000 12.2264)" style="font-family:Roboto;font-size:14.00;fill:#0392CE;stroke:none;">S</text>
	<path fill="none" stroke="#808080" stroke-width="2.00" stroke-linecap="round" stroke-linejoin="round" d="M64.793 45.966L76.948,45.712 "/>
	<path fill="none" stroke="#808080" stroke-width="2.00" stroke-linecap="round" stroke-linejoin="round" d="M64.807 47.737L55.284,96.550 "/>
	<path fill="none" stroke="#808080" stroke-width="2.00" stroke-linecap="round" stroke-linejoin="round" d="M64.041 35.063L77.646,35.063 77.646,42.729 64.041,42.729 Z"/>
	<path fill="none" stroke="#FABC02" stroke-width="2.00" stroke-linecap="round" stroke-linejoin="round" d="M47.622 25.989L61.226,33.968 "/>
	<path fill="none" stroke="#FABC02" stroke-width="2.00" stroke-linecap="round" stroke-linejoin="round" d="M46.043 53.974L59.648,45.995 "/>
	<path fill="none" stroke="#FABC02" stroke-width="2.00" stroke-linecap="round" stroke-linejoin="round" d="M46.371 39.913L60.445,41.165 "/>
	<path fill="none" stroke="#FABC02" stroke-width="2.00" stroke-linecap="round" stroke-linejoin="round" d="M94.505 26.282L80.900,34.261 "/>
	<path fill="none" stroke="#FABC02" stroke-width="2.00" stroke-linecap="round" stroke-linejoin="round" d="M96.084 54.268L82.479,46.288 "/>
	<path fill="none" stroke="#FABC02" stroke-width="2.00" stroke-linecap="round" stroke-linejoin="round" d="M95.756 40.206L81.682,41.458 "/>
	<text x="39.490" y="110.004" transform="matrix(1.0000 0.0000 0.0000 1.0000 0.0000 0.0000)" style="font-family:Droid Serif;font-size:14.00;fill:#0392CE;stroke:none;">Be-Secure</text>
	<text x="25.729" y="121.738" transform="matrix(1.0000 0.0000 0.0000 1.0000 0.0000 0.0000)" style="font-family:Droid Serif;font-size:9.00;font-style:italic;fill:#808080;stroke:none;">Trusted &amp; Verified OSS</text>
	<path fill="none" stroke="#808080" stroke-width="2.00" stroke-linecap="round" stroke-linejoin="round" d="M68.109 31.778L70.922,25.988 "/>
	<path fill="none" stroke="#808080" stroke-width="2.00" stroke-linecap="round" stroke-linejoin="round" d="M74.079 31.669L71.689,26.751 "/>
	<path fill="none" stroke="#808080" stroke-width="2.00" stroke-linecap="round" stroke-linejoin="round" d="M76.983 47.638L86.506,96.451 "/>
	<path fill="none" stroke="#808080" stroke-width="2.00" stroke-linecap="round" stroke-linejoin="round" d="M64.784 32.062L76.940,31.809 "/>
</g>
</svg>
